<mxfile host="app.diagrams.net" modified="2023-03-20T12:37:23.347Z" agent="5.0 (Windows NT 10.0; Win64; x64) AppleWebKit/537.36 (KHTML, like Gecko) Chrome/102.0.0.0 Safari/537.36" etag="MkLXCBkJXmt15tKv9xKR" version="21.0.8" type="github">
  <diagram name="第 1 页" id="pz1jVyvXg0_LhJZVS1x5">
    <mxGraphModel dx="1434" dy="764" grid="1" gridSize="10" guides="1" tooltips="1" connect="1" arrows="1" fold="1" page="1" pageScale="1" pageWidth="827" pageHeight="1169" math="0" shadow="0">
      <root>
        <mxCell id="0" />
        <mxCell id="1" parent="0" />
        <mxCell id="OPfXbUtbgR2OJTm1OdhY-9" value="" style="edgeStyle=orthogonalEdgeStyle;rounded=0;orthogonalLoop=1;jettySize=auto;html=1;" parent="1" source="OPfXbUtbgR2OJTm1OdhY-2" target="OPfXbUtbgR2OJTm1OdhY-4" edge="1">
          <mxGeometry relative="1" as="geometry" />
        </mxCell>
        <mxCell id="OPfXbUtbgR2OJTm1OdhY-2" value="reporter" style="rounded=1;whiteSpace=wrap;html=1;" parent="1" vertex="1">
          <mxGeometry x="364" y="250" width="120" height="60" as="geometry" />
        </mxCell>
        <mxCell id="OPfXbUtbgR2OJTm1OdhY-8" value="" style="edgeStyle=orthogonalEdgeStyle;rounded=0;orthogonalLoop=1;jettySize=auto;html=1;" parent="1" source="OPfXbUtbgR2OJTm1OdhY-3" target="OPfXbUtbgR2OJTm1OdhY-4" edge="1">
          <mxGeometry relative="1" as="geometry" />
        </mxCell>
        <mxCell id="OPfXbUtbgR2OJTm1OdhY-3" value="adMethod" style="rounded=1;whiteSpace=wrap;html=1;" parent="1" vertex="1">
          <mxGeometry x="580" y="370" width="120" height="60" as="geometry" />
        </mxCell>
        <mxCell id="OPfXbUtbgR2OJTm1OdhY-10" value="" style="edgeStyle=orthogonalEdgeStyle;rounded=0;orthogonalLoop=1;jettySize=auto;html=1;" parent="1" source="OPfXbUtbgR2OJTm1OdhY-4" target="OPfXbUtbgR2OJTm1OdhY-6" edge="1">
          <mxGeometry relative="1" as="geometry" />
        </mxCell>
        <mxCell id="OPfXbUtbgR2OJTm1OdhY-4" value="entry" style="rounded=1;whiteSpace=wrap;html=1;" parent="1" vertex="1">
          <mxGeometry x="364" y="370" width="120" height="60" as="geometry" />
        </mxCell>
        <mxCell id="OPfXbUtbgR2OJTm1OdhY-7" value="" style="edgeStyle=orthogonalEdgeStyle;rounded=0;orthogonalLoop=1;jettySize=auto;html=1;" parent="1" source="OPfXbUtbgR2OJTm1OdhY-5" target="OPfXbUtbgR2OJTm1OdhY-4" edge="1">
          <mxGeometry relative="1" as="geometry" />
        </mxCell>
        <mxCell id="OPfXbUtbgR2OJTm1OdhY-5" value="nativeAdapter" style="rounded=1;whiteSpace=wrap;html=1;" parent="1" vertex="1">
          <mxGeometry x="364" y="500" width="120" height="60" as="geometry" />
        </mxCell>
        <mxCell id="OPfXbUtbgR2OJTm1OdhY-6" value="dist" style="rounded=1;whiteSpace=wrap;html=1;" parent="1" vertex="1">
          <mxGeometry x="100" y="370" width="120" height="60" as="geometry" />
        </mxCell>
        <mxCell id="OPfXbUtbgR2OJTm1OdhY-12" value="" style="edgeStyle=orthogonalEdgeStyle;rounded=0;orthogonalLoop=1;jettySize=auto;html=1;" parent="1" source="OPfXbUtbgR2OJTm1OdhY-11" target="OPfXbUtbgR2OJTm1OdhY-3" edge="1">
          <mxGeometry relative="1" as="geometry" />
        </mxCell>
        <mxCell id="OPfXbUtbgR2OJTm1OdhY-11" value="template / scss" style="rounded=1;whiteSpace=wrap;html=1;" parent="1" vertex="1">
          <mxGeometry x="800" y="370" width="120" height="60" as="geometry" />
        </mxCell>
        <mxCell id="OPfXbUtbgR2OJTm1OdhY-13" value="" style="endArrow=classic;html=1;rounded=0;exitX=1;exitY=0.5;exitDx=0;exitDy=0;entryX=0.5;entryY=0;entryDx=0;entryDy=0;dashed=1;" parent="1" source="OPfXbUtbgR2OJTm1OdhY-2" target="OPfXbUtbgR2OJTm1OdhY-3" edge="1">
          <mxGeometry width="50" height="50" relative="1" as="geometry">
            <mxPoint x="670" y="280" as="sourcePoint" />
            <mxPoint x="720" y="230" as="targetPoint" />
            <Array as="points">
              <mxPoint x="640" y="280" />
            </Array>
          </mxGeometry>
        </mxCell>
        <mxCell id="OPfXbUtbgR2OJTm1OdhY-14" value="" style="endArrow=classic;html=1;rounded=0;exitX=1;exitY=0.5;exitDx=0;exitDy=0;entryX=0.5;entryY=1;entryDx=0;entryDy=0;shadow=1;dashed=1;" parent="1" source="OPfXbUtbgR2OJTm1OdhY-5" target="OPfXbUtbgR2OJTm1OdhY-3" edge="1">
          <mxGeometry width="50" height="50" relative="1" as="geometry">
            <mxPoint x="494" y="290" as="sourcePoint" />
            <mxPoint x="650" y="380" as="targetPoint" />
            <Array as="points">
              <mxPoint x="640" y="530" />
            </Array>
          </mxGeometry>
        </mxCell>
        <mxCell id="GkYXQ1A5_HsME0mNiHi7-2" value="" style="endArrow=classic;html=1;rounded=0;exitX=0;exitY=0.5;exitDx=0;exitDy=0;entryX=0;entryY=0.5;entryDx=0;entryDy=0;dashed=1;" edge="1" parent="1" source="OPfXbUtbgR2OJTm1OdhY-5" target="OPfXbUtbgR2OJTm1OdhY-2">
          <mxGeometry width="50" height="50" relative="1" as="geometry">
            <mxPoint x="490" y="720" as="sourcePoint" />
            <mxPoint x="540" y="670" as="targetPoint" />
            <Array as="points">
              <mxPoint x="280" y="530" />
              <mxPoint x="280" y="280" />
            </Array>
          </mxGeometry>
        </mxCell>
        <mxCell id="GkYXQ1A5_HsME0mNiHi7-4" value="reporter" style="rounded=1;whiteSpace=wrap;html=1;" vertex="1" parent="1">
          <mxGeometry x="364" y="730" width="120" height="60" as="geometry" />
        </mxCell>
        <mxCell id="GkYXQ1A5_HsME0mNiHi7-5" value="" style="edgeStyle=orthogonalEdgeStyle;rounded=0;orthogonalLoop=1;jettySize=auto;html=1;" edge="1" parent="1" source="GkYXQ1A5_HsME0mNiHi7-6" target="GkYXQ1A5_HsME0mNiHi7-8">
          <mxGeometry relative="1" as="geometry" />
        </mxCell>
        <mxCell id="GkYXQ1A5_HsME0mNiHi7-6" value="adMethod" style="rounded=1;whiteSpace=wrap;html=1;" vertex="1" parent="1">
          <mxGeometry x="580" y="1020" width="120" height="60" as="geometry" />
        </mxCell>
        <mxCell id="GkYXQ1A5_HsME0mNiHi7-7" value="" style="edgeStyle=orthogonalEdgeStyle;rounded=0;orthogonalLoop=1;jettySize=auto;html=1;" edge="1" parent="1" source="GkYXQ1A5_HsME0mNiHi7-8" target="GkYXQ1A5_HsME0mNiHi7-11">
          <mxGeometry relative="1" as="geometry" />
        </mxCell>
        <mxCell id="GkYXQ1A5_HsME0mNiHi7-8" value="entry" style="rounded=1;whiteSpace=wrap;html=1;" vertex="1" parent="1">
          <mxGeometry x="364" y="1020" width="120" height="60" as="geometry" />
        </mxCell>
        <mxCell id="GkYXQ1A5_HsME0mNiHi7-9" value="" style="edgeStyle=orthogonalEdgeStyle;rounded=0;orthogonalLoop=1;jettySize=auto;html=1;" edge="1" parent="1" source="GkYXQ1A5_HsME0mNiHi7-10" target="GkYXQ1A5_HsME0mNiHi7-8">
          <mxGeometry relative="1" as="geometry" />
        </mxCell>
        <mxCell id="GkYXQ1A5_HsME0mNiHi7-10" value="nativeAdapter" style="rounded=1;whiteSpace=wrap;html=1;" vertex="1" parent="1">
          <mxGeometry x="364" y="1150" width="120" height="60" as="geometry" />
        </mxCell>
        <mxCell id="GkYXQ1A5_HsME0mNiHi7-11" value="dist" style="rounded=1;whiteSpace=wrap;html=1;" vertex="1" parent="1">
          <mxGeometry x="100" y="1020" width="120" height="60" as="geometry" />
        </mxCell>
        <mxCell id="GkYXQ1A5_HsME0mNiHi7-12" value="" style="edgeStyle=orthogonalEdgeStyle;rounded=0;orthogonalLoop=1;jettySize=auto;html=1;" edge="1" parent="1" source="GkYXQ1A5_HsME0mNiHi7-13" target="GkYXQ1A5_HsME0mNiHi7-6">
          <mxGeometry relative="1" as="geometry" />
        </mxCell>
        <mxCell id="GkYXQ1A5_HsME0mNiHi7-13" value="template / scss" style="rounded=1;whiteSpace=wrap;html=1;" vertex="1" parent="1">
          <mxGeometry x="800" y="1020" width="120" height="60" as="geometry" />
        </mxCell>
        <mxCell id="GkYXQ1A5_HsME0mNiHi7-15" value="" style="endArrow=classic;html=1;rounded=0;exitX=1;exitY=0.5;exitDx=0;exitDy=0;entryX=0.5;entryY=1;entryDx=0;entryDy=0;shadow=1;dashed=1;" edge="1" parent="1" source="GkYXQ1A5_HsME0mNiHi7-10" target="GkYXQ1A5_HsME0mNiHi7-6">
          <mxGeometry width="50" height="50" relative="1" as="geometry">
            <mxPoint x="494" y="940" as="sourcePoint" />
            <mxPoint x="650" y="1030" as="targetPoint" />
            <Array as="points">
              <mxPoint x="640" y="1180" />
            </Array>
          </mxGeometry>
        </mxCell>
        <mxCell id="GkYXQ1A5_HsME0mNiHi7-21" value="" style="edgeStyle=orthogonalEdgeStyle;rounded=0;orthogonalLoop=1;jettySize=auto;html=1;" edge="1" parent="1" source="GkYXQ1A5_HsME0mNiHi7-17" target="GkYXQ1A5_HsME0mNiHi7-8">
          <mxGeometry relative="1" as="geometry" />
        </mxCell>
        <mxCell id="GkYXQ1A5_HsME0mNiHi7-17" value="eventListener" style="rounded=1;whiteSpace=wrap;html=1;" vertex="1" parent="1">
          <mxGeometry x="364" y="880" width="120" height="60" as="geometry" />
        </mxCell>
        <mxCell id="GkYXQ1A5_HsME0mNiHi7-18" value="" style="endArrow=classic;html=1;rounded=0;exitX=0;exitY=0.5;exitDx=0;exitDy=0;entryX=0;entryY=0.5;entryDx=0;entryDy=0;dashed=1;" edge="1" parent="1" source="GkYXQ1A5_HsME0mNiHi7-17" target="GkYXQ1A5_HsME0mNiHi7-10">
          <mxGeometry width="50" height="50" relative="1" as="geometry">
            <mxPoint x="130" y="900" as="sourcePoint" />
            <mxPoint x="180" y="850" as="targetPoint" />
            <Array as="points">
              <mxPoint x="280" y="910" />
              <mxPoint x="280" y="1180" />
            </Array>
          </mxGeometry>
        </mxCell>
        <mxCell id="GkYXQ1A5_HsME0mNiHi7-19" value="" style="endArrow=classic;html=1;rounded=0;exitX=1;exitY=0.5;exitDx=0;exitDy=0;entryX=0.5;entryY=0;entryDx=0;entryDy=0;dashed=1;" edge="1" parent="1" source="GkYXQ1A5_HsME0mNiHi7-17" target="GkYXQ1A5_HsME0mNiHi7-6">
          <mxGeometry width="50" height="50" relative="1" as="geometry">
            <mxPoint x="920" y="960" as="sourcePoint" />
            <mxPoint x="970" y="910" as="targetPoint" />
            <Array as="points">
              <mxPoint x="640" y="910" />
            </Array>
          </mxGeometry>
        </mxCell>
        <mxCell id="GkYXQ1A5_HsME0mNiHi7-20" value="" style="endArrow=classic;html=1;rounded=0;exitX=0.5;exitY=1;exitDx=0;exitDy=0;entryX=0.5;entryY=0;entryDx=0;entryDy=0;" edge="1" parent="1" source="GkYXQ1A5_HsME0mNiHi7-4" target="GkYXQ1A5_HsME0mNiHi7-17">
          <mxGeometry width="50" height="50" relative="1" as="geometry">
            <mxPoint x="630" y="840" as="sourcePoint" />
            <mxPoint x="680" y="790" as="targetPoint" />
          </mxGeometry>
        </mxCell>
      </root>
    </mxGraphModel>
  </diagram>
</mxfile>
